{
  "accessors": [
    {
      "bufferView": 2,
      "componentType": 5126,
      "count": 2469,
      "max": [
        7.484038829803467,
        16.213335037231445,
        12.82175350189209
      ],
      "min": [
        -6.516904830932617,
        -0.2221367359161377,
        -13.535932540893555
      ],
      "type": "VEC3"
    },
    {
      "bufferView": 2,
      "byteOffset": 29628,
      "componentType": 5126,
      "count": 2469,
      "max": [
        0.999808132648468,
        0.9990848898887634,
        0.9971144795417786
      ],
      "min": [
        -0.9994950294494629,
        -0.9997674822807312,
        -0.9986444115638733
      ],
      "type": "VEC3"
    },
    {
      "bufferView": 1,
      "componentType": 5126,
      "count": 2469,
      "max": [
        0.990947961807251,
        0.9963897466659546
      ],
      "min": [
        0.00390625,
        0.00390625
      ],
      "type": "VEC2"
    },
    {
      "bufferView": 0,
      "componentType": 5125,
      "count": 10572,
      "type": "SCALAR"
    }
  ],
  "asset": {
    "extras": {
      "author": "Stephengury (https://sketchfab.com/Stephengury)",
      "license": "CC-BY-4.0 (http://creativecommons.org/licenses/by/4.0/)",
      "source": "https://sketchfab.com/3d-models/elephant-f57057ad0c2044ec88c9ba5ab5c18a41",
      "title": "Elephant"
    },
    "generator": "Sketchfab-15.29.0",
    "version": "2.0"
  },
  "bufferViews": [
    {
      "buffer": 0,
      "byteLength": 42288,
      "name": "floatBufferViews",
      "target": 34963
    },
    {
      "buffer": 0,
      "byteLength": 19752,
      "byteOffset": 42288,
      "byteStride": 8,
      "name": "floatBufferViews",
      "target": 34962
    },
    {
      "buffer": 0,
      "byteLength": 59256,
      "byteOffset": 62040,
      "byteStride": 12,
      "name": "floatBufferViews",
      "target": 34962
    }
  ],
  "buffers": [
    {
      "byteLength": 121296,
      "uri": "scene.bin"
    }
  ],
  "images": [
    {
      "uri": "textures/Elephant_baseColor.jpeg"
    }
  ],
  "materials": [
    {
      "doubleSided": true,
      "name": "Elephant",
      "pbrMetallicRoughness": {
        "baseColorTexture": {
          "index": 0
        },
        "metallicFactor": 0.0,
        "roughnessFactor": 0.9679047184660332
      }
    }
  ],
  "meshes": [
    {
      "name": "Elephant_Elephant_0",
      "primitives": [
        {
          "attributes": {
            "NORMAL": 1,
            "POSITION": 0,
            "TEXCOORD_0": 2
          },
          "indices": 3,
          "material": 0,
          "mode": 4
        }
      ]
    }
  ],
  "nodes": [
    {
      "children": [
        1
      ],
      "matrix": [
        1.0,
        0.0,
        0.0,
        0.0,
        0.0,
        2.220446049250313e-16,
        -1.0,
        0.0,
        0.0,
        1.0,
        2.220446049250313e-16,
        0.0,
        0.0,
        0.0,
        0.0,
        1.0
      ],
      "name": "Sketchfab_model"
    },
    {
      "children": [
        2
      ],
      "matrix": [
        1.0,
        0.0,
        0.0,
        0.0,
        0.0,
        0.0,
        1.0,
        0.0,
        0.0,
        -1.0,
        0.0,
        0.0,
        0.0,
        0.0,
        0.0,
        1.0
      ],
      "name": "Elephant.FBX"
    },
    {
      "children": [
        3
      ],
      "name": "RootNode"
    },
    {
      "children": [
        4
      ],
      "matrix": [
        0.17216399312019348,
        0.0,
        0.0,
        0.0,
        0.0,
        0.17216399312019118,
        2.8049076025707307e-08,
        0.0,
        0.0,
        -2.8049076025707307e-08,
        0.17216399312019118,
        0.0,
        -0.028848648071289063,
        0.0,
        0.06243753433227539,
        1.0
      ],
      "name": "Elephant"
    },
    {
      "mesh": 0,
      "name": "Elephant_Elephant_0"
    }
  ],
  "samplers": [
    {
      "magFilter": 9729,
      "minFilter": 9987,
      "wrapS": 10497,
      "wrapT": 10497
    }
  ],
  "scene": 0,
  "scenes": [
    {
      "name": "Sketchfab_Scene",
      "nodes": [
        0
      ]
    }
  ],
  "textures": [
    {
      "sampler": 0,
      "source": 0
    }
  ]
}
